<?xml version="1.0" standalone="no"?>
<!DOCTYPE svg PUBLIC "-//W3C//DTD SVG 20010904//EN"
 "http://www.w3.org/TR/2001/REC-SVG-20010904/DTD/svg10.dtd">
<svg version="1.0" xmlns="http://www.w3.org/2000/svg"
 width="500.000000pt" height="500.000000pt" viewBox="0 0 500.000000 500.000000"
 preserveAspectRatio="xMidYMid meet">
<metadata>
Created by potrace 1.14, written by Peter Selinger 2001-2017
</metadata>
<g transform="translate(0.000000,500.000000) scale(0.100000,-0.100000)"
fill="#000000" stroke="none">
<path d="M547 3697 c4 -6 0 -8 -10 -4 -10 3 -17 2 -17 -2 0 -5 -10 -7 -22 -3
-16 4 -19 2 -13 -8 6 -10 4 -12 -8 -7 -10 4 -17 2 -17 -5 0 -6 -6 -5 -17 3 -9
8 -14 9 -10 2 7 -11 -28 -30 -45 -25 -5 1 -8 -2 -8 -8 0 -5 -7 -10 -16 -10 -9
0 -12 -5 -8 -12 4 -7 3 -8 -4 -4 -7 4 -23 -4 -37 -18 -14 -14 -25 -21 -25 -16
0 6 -5 10 -12 10 -6 0 -9 -3 -5 -6 8 -8 -18 -34 -34 -34 -7 0 -9 -3 -6 -7 4
-3 -3 -11 -16 -18 -12 -6 -21 -19 -21 -28 1 -9 -2 -14 -7 -12 -4 3 -13 -4 -19
-15 -6 -11 -15 -18 -21 -15 -5 4 -8 1 -7 -7 2 -7 -3 -12 -10 -10 -8 1 -11 -2
-7 -8 4 -7 -4 -23 -16 -37 -13 -15 -17 -23 -9 -19 9 5 8 2 -2 -7 -10 -8 -15
-17 -11 -20 3 -4 1 -7 -5 -7 -7 0 -11 -6 -10 -12 2 -7 -2 -12 -9 -11 -7 2 -10
-6 -8 -17 2 -11 0 -20 -5 -20 -5 0 -7 -7 -4 -15 4 -8 1 -15 -6 -15 -7 0 -10
-7 -6 -15 3 -8 1 -15 -5 -15 -6 0 -7 -5 -4 -11 4 -5 0 -18 -8 -27 -21 -24 -20
-323 0 -315 11 4 12 -1 7 -22 -5 -19 -3 -26 4 -21 6 3 9 -1 8 -11 -2 -10 4
-24 13 -31 14 -12 14 -13 -2 -8 -14 5 -13 0 8 -28 14 -18 22 -36 18 -39 -3 -4
-1 -7 5 -7 7 0 11 -3 11 -7 -3 -20 2 -34 11 -28 6 3 10 -3 10 -15 0 -12 4 -18
10 -15 5 3 10 -3 10 -15 0 -11 7 -23 16 -27 8 -3 20 -17 25 -30 5 -14 18 -27
29 -30 18 -5 24 -15 22 -34 -1 -4 6 -6 16 -5 11 1 16 -6 16 -17 -2 -14 1 -15
13 -6 11 10 13 10 11 0 -2 -8 4 -15 13 -16 10 -2 27 -13 38 -24 12 -12 26 -19
31 -16 6 4 10 1 10 -5 0 -6 4 -8 10 -5 5 3 10 1 10 -4 0 -6 7 -11 15 -11 8 0
15 -5 15 -11 0 -8 6 -7 17 2 11 10 14 10 9 2 -6 -12 11 -18 37 -14 4 0 7 -3 7
-7 0 -4 17 -9 37 -10 21 -2 41 -8 45 -15 6 -9 8 -8 8 3 0 12 2 12 9 2 4 -8 19
-11 34 -8 15 2 29 0 33 -5 3 -5 11 -6 17 -2 7 4 41 8 77 9 83 2 82 2 76 13 -4
5 2 8 11 7 10 -2 21 2 25 8 6 8 8 7 8 -1 0 -9 11 -7 34 7 19 10 44 17 56 15
12 -2 18 0 15 6 -4 5 7 14 24 20 17 6 28 15 25 20 -3 5 2 6 10 3 9 -3 16 -1
16 6 0 6 5 8 12 4 8 -5 9 -2 5 10 -4 10 -3 15 3 11 6 -3 10 -1 10 4 0 6 7 11
15 11 8 0 23 9 32 19 9 11 20 18 25 15 4 -3 8 2 8 10 0 9 4 16 9 16 5 0 18 16
30 36 13 21 26 32 33 28 6 -4 8 -3 5 3 -4 6 4 22 18 37 13 14 19 26 13 26 -6
0 1 11 16 25 15 14 22 25 17 25 -6 0 -8 6 -5 13 7 19 -22 42 -32 26 -5 -8 -3
-10 7 -4 8 5 11 4 6 0 -12 -14 -128 -12 -123 2 3 7 -1 10 -9 6 -8 -3 -13 -8
-11 -12 2 -3 -11 -6 -30 -6 -23 0 -33 4 -30 12 3 7 -1 10 -9 6 -8 -3 -13 -8
-11 -12 2 -3 -11 -6 -30 -6 -23 0 -33 4 -30 12 3 7 -1 10 -9 6 -8 -3 -13 -8
-11 -12 6 -9 -90 -5 -105 5 -8 4 -9 3 -5 -4 4 -7 3 -12 -2 -12 -5 0 -12 9 -15
21 -4 13 -10 19 -19 14 -7 -3 -4 1 6 9 11 9 15 16 9 16 -7 0 -11 9 -10 20 1
11 6 20 12 20 5 0 3 5 -5 10 -13 8 -12 10 3 10 12 0 16 4 11 13 -6 9 -5 9 8 0
8 -7 18 -10 21 -6 4 3 7 0 7 -7 0 -9 5 -8 13 5 11 14 16 15 22 5 6 -9 4 -11
-5 -5 -9 5 -11 4 -6 -3 5 -9 15 -7 34 6 15 10 23 12 18 4 -6 -10 -1 -11 18 -6
18 4 26 2 26 -7 0 -8 5 -6 13 6 11 14 16 15 22 5 6 -9 4 -11 -5 -5 -9 5 -11 4
-6 -4 5 -8 12 -9 19 -3 16 13 117 11 117 -2 0 -5 6 -2 13 9 11 14 16 15 22 5
6 -9 4 -11 -5 -5 -9 5 -11 4 -6 -4 6 -9 11 -9 21 -1 13 11 72 9 92 -3 6 -4 15
-2 19 4 5 8 3 9 -6 4 -9 -5 -11 -4 -6 4 6 9 11 9 24 -1 12 -10 14 -10 8 0 -4
6 -3 12 2 12 5 0 8 16 6 35 -1 22 1 33 8 29 6 -4 6 1 -1 14 -8 15 -7 23 4 32
14 11 14 16 -1 38 -9 13 -11 21 -5 18 6 -4 11 -2 11 3 0 6 -6 11 -12 11 -10 0
-10 2 0 9 11 7 11 9 -2 14 -9 4 -16 1 -16 -6 0 -9 -2 -9 -9 1 -5 8 -19 11 -39
7 -17 -3 -33 -1 -37 5 -3 5 -12 7 -20 4 -8 -4 -12 -11 -8 -18 5 -8 3 -8 -8 0
-18 14 -61 16 -53 3 3 -6 -3 -5 -14 2 -17 11 -24 10 -38 -2 -10 -8 -15 -9 -11
-2 9 15 -32 14 -52 -1 -12 -9 -13 -8 -7 3 7 10 3 12 -14 6 -17 -6 -21 -4 -15
6 5 8 -2 5 -15 -6 -20 -17 -23 -18 -17 -2 4 9 2 17 -3 17 -6 0 -10 -4 -10 -9
0 -5 -12 -8 -26 -5 -17 3 -23 1 -19 -6 4 -7 -2 -6 -14 2 -18 11 -23 11 -30 0
-6 -11 -10 -10 -15 4 -6 15 -9 16 -16 4 -11 -18 -21 21 -17 68 3 36 26 59 38
40 6 -9 12 -8 23 1 12 11 16 11 16 1 0 -10 3 -10 15 0 8 7 15 8 15 3 0 -5 9
-9 20 -9 11 0 20 5 20 11 0 5 4 4 9 -4 5 -8 14 -10 22 -5 18 11 49 13 49 3 0
-9 20 -6 38 4 6 5 12 4 12 0 0 -5 9 -9 20 -9 11 0 20 4 20 9 0 5 7 4 15 -3 12
-10 15 -10 15 1 0 9 3 10 8 4 9 -13 42 -15 42 -3 0 6 6 6 14 -1 11 -9 15 -9
19 1 4 10 6 10 6 -1 1 -10 4 -11 15 -2 9 8 16 8 20 2 11 -18 37 -1 27 17 -5
10 -7 25 -6 35 2 9 -2 17 -8 17 -5 0 -8 3 -4 6 3 4 0 19 -8 34 -8 15 -11 31
-7 35 4 5 2 5 -5 1 -8 -4 -15 2 -19 19 -3 14 -10 25 -14 25 -5 0 -12 9 -15 21
-6 19 -8 19 -19 3 -9 -12 -15 -14 -20 -5 -4 6 -12 9 -17 6 -5 -4 -9 -1 -9 6 0
8 -5 7 -17 -2 -14 -12 -16 -12 -8 0 6 11 4 13 -8 8 -9 -3 -19 -2 -22 4 -4 5
-11 7 -16 4 -5 -4 -9 -2 -9 3 0 5 -11 8 -25 7 -14 -2 -25 1 -25 7 0 6 -7 8
-15 4 -8 -3 -15 -2 -15 2 0 4 -12 9 -26 10 -15 1 -33 10 -41 20 -8 9 -12 11
-8 5 3 -7 1 -13 -4 -13 -6 0 -11 5 -11 12 0 6 -3 9 -6 5 -4 -3 -13 1 -21 9 -9
8 -22 13 -30 10 -7 -3 -16 1 -19 9 -4 8 -10 12 -15 9 -5 -3 -9 0 -9 7 0 7 -3
9 -7 6 -3 -4 -12 -2 -20 5 -11 9 -12 7 -7 -7 5 -12 4 -16 -4 -11 -7 4 -8 -2
-2 -23 6 -21 5 -31 -3 -35 -7 -2 -4 -5 6 -5 10 -1 15 -6 12 -11 -4 -6 -11 -7
-17 -4 -7 5 -8 2 -3 -6 13 -20 13 -80 0 -73 -5 4 -1 -4 10 -17 11 -13 14 -20
6 -15 -11 6 -13 4 -8 -8 3 -10 3 -17 -1 -17 -4 0 -7 -11 -7 -24 0 -17 4 -22
15 -18 12 5 13 3 3 -9 -6 -8 -10 -29 -9 -47 1 -17 -1 -32 -6 -32 -4 0 -8 -5
-8 -11 0 -5 5 -7 12 -3 7 4 8 3 4 -5 -4 -7 -8 -33 -8 -59 -1 -35 2 -46 13 -44
9 1 8 -2 -3 -11 -20 -15 -25 -32 -7 -21 8 4 9 -1 4 -16 -5 -15 -4 -20 4 -16 5
4 4 -6 -4 -21 -13 -25 -13 -29 2 -40 16 -12 16 -13 0 -13 -21 0 -21 -8 0 -32
16 -18 16 -18 -1 -12 -16 6 -17 4 -7 -14 7 -12 8 -22 4 -22 -4 0 -7 -15 -7
-32 1 -23 6 -32 15 -30 8 2 3 -8 -10 -22 -28 -30 -33 -32 -25 -11 4 8 1 15 -6
15 -7 0 -10 8 -7 20 3 10 0 21 -7 24 -6 2 -2 5 8 5 20 1 20 1 0 17 -18 15 -18
15 0 10 14 -5 16 -3 9 6 -10 13 -15 104 -12 203 1 17 0 33 -1 38 -7 21 -4 33
10 45 8 8 10 11 4 8 -15 -7 -15 42 -1 69 9 17 8 18 -5 7 -13 -11 -15 -8 -11
20 3 18 5 52 5 76 0 30 3 40 11 35 7 -3 4 3 -6 14 -14 16 -15 22 -5 25 11 4
10 8 -1 21 -7 10 -9 17 -4 17 5 0 7 16 5 36 -4 29 -2 35 9 28 12 -6 12 -5 1 8
-7 9 -11 28 -8 43 3 17 0 28 -10 32 -8 3 -14 11 -14 19 0 8 -6 14 -13 14 -8 0
-22 9 -32 20 -10 11 -21 18 -24 15 -10 -11 -12 -55 -1 -55 5 0 10 -5 10 -11 0
-5 -5 -7 -11 -3 -8 4 -8 1 -1 -13 7 -12 7 -25 1 -36 -7 -12 -6 -17 3 -17 9 0
9 -3 0 -12 -8 -8 -8 -15 -1 -24 7 -9 7 -19 -1 -33 -8 -16 -8 -21 1 -21 8 0 8
-4 -1 -15 -8 -9 -8 -15 -2 -15 11 0 10 -60 -2 -79 -4 -6 -2 -11 5 -11 8 0 8
-4 -1 -15 -10 -12 -10 -15 0 -15 10 0 10 -3 1 -14 -8 -9 -8 -16 -2 -20 10 -7
8 -57 -4 -76 -3 -5 -1 -10 6 -10 8 0 9 -4 0 -13 -7 -10 -7 -17 0 -24 8 -8 8
-17 0 -31 -9 -17 -8 -23 6 -32 17 -11 17 -11 0 -6 -22 7 -20 -22 3 -42 13 -10
13 -11 -3 -6 -22 8 -20 -15 3 -33 13 -11 13 -12 -3 -7 -22 8 -20 -15 3 -33 13
-11 13 -12 -3 -7 -22 8 -20 -15 3 -33 13 -12 13 -12 -1 -8 -10 4 -16 0 -16
-10 0 -8 5 -15 11 -15 6 0 4 -5 -4 -10 -13 -9 -13 -10 0 -10 13 0 13 -1 0 -10
-13 -9 -13 -10 0 -10 13 0 13 -1 0 -10 -8 -5 -10 -10 -4 -10 6 0 11 -7 11 -15
0 -8 -4 -12 -9 -9 -4 3 -8 -1 -8 -8 0 -9 -3 -9 -10 2 -8 12 -10 12 -11 -5 -1
-16 -2 -16 -8 5 -4 14 -4 35 0 48 6 14 5 22 -2 22 -8 0 -7 5 1 15 8 10 9 15 1
15 -7 0 -8 8 -1 25 7 17 6 25 -1 25 -8 0 -7 5 1 15 8 10 9 15 1 15 -7 0 -8 8
-1 25 7 17 6 25 -1 25 -8 0 -7 5 1 15 8 10 9 15 1 15 -7 0 -8 8 -1 25 7 17 6
25 -1 25 -7 0 -6 6 2 17 12 14 12 15 1 9 -11 -7 -12 -4 -3 12 8 15 8 21 -1 24
-8 3 -8 10 1 26 8 15 8 22 1 22 -7 0 -7 7 1 21 8 16 8 20 -1 14 -9 -6 -9 -3
-1 13 8 15 8 21 -1 24 -8 3 -8 10 1 26 8 15 8 22 1 22 -7 0 -7 7 1 21 8 16 8
20 -1 14 -9 -6 -9 -3 -1 13 8 15 8 21 -1 24 -8 3 -8 10 1 26 8 15 8 22 1 22
-7 0 -7 7 1 21 8 16 8 20 -1 14 -9 -6 -9 -3 -1 13 8 15 8 21 -1 24 -8 3 -8 10
1 26 8 15 8 22 1 22 -7 0 -7 7 1 21 8 16 8 20 -1 14 -9 -6 -9 -2 -1 14 9 16 9
21 0 21 -7 0 -8 7 -4 18 11 28 13 62 3 62 -5 0 -6 5 -3 10 3 6 -3 10 -15 10
-12 0 -18 -4 -15 -10 3 -5 1 -10 -4 -10 -6 0 -11 4 -11 8 0 5 -7 9 -15 9 -8 0
-11 -5 -8 -10z m-517 -536 c0 -6 -4 -12 -8 -15 -5 -3 -9 1 -9 9 0 8 4 15 9 15
4 0 8 -4 8 -9z"/>
<path d="M664 3698 c-5 -7 -3 -8 6 -3 10 6 12 4 7 -8 -4 -11 -1 -17 9 -17 9 0
12 -5 8 -12 -4 -6 -3 -8 4 -4 6 3 16 1 24 -6 7 -7 19 -14 25 -15 14 -3 25 24
13 32 -6 4 -10 15 -10 26 0 16 -7 19 -39 19 -22 0 -43 -5 -47 -12z"/>
<path d="M798 3687 c-12 -9 -14 -17 -7 -30 7 -11 7 -17 0 -17 -16 0 -5 -33 15
-44 10 -6 22 -15 26 -21 5 -7 8 -7 8 0 0 6 7 1 15 -9 11 -14 15 -16 15 -5 0 9
3 10 8 3 7 -11 61 -37 100 -49 13 -4 20 -11 16 -18 -5 -8 -2 -8 7 1 17 15 33
16 23 0 -5 -7 -2 -9 9 -5 8 3 21 -1 28 -9 9 -12 15 -12 27 -2 10 8 13 8 9 2
-4 -7 2 -14 16 -18 32 -8 39 -7 31 5 -4 8 0 7 15 -1 12 -6 19 -16 15 -21 -3
-6 3 -5 14 2 20 13 20 13 1 29 -10 10 -15 21 -11 25 4 5 -1 5 -10 2 -13 -4
-18 -1 -19 11 0 11 -2 12 -6 4 -4 -10 -8 -10 -18 -2 -10 8 -20 8 -37 -1 -21
-11 -22 -11 -10 4 11 13 10 15 -7 10 -12 -3 -21 -1 -21 6 0 6 -14 11 -31 11
-17 0 -28 4 -24 10 3 6 -1 11 -9 11 -35 3 -41 5 -39 15 1 6 -5 11 -13 12 -7 1
-21 3 -29 4 -8 1 -15 7 -15 15 0 7 -6 13 -13 13 -7 0 -19 9 -27 19 -7 11 -17
18 -22 15 -7 -5 -12 10 -9 29 1 9 -1 9 -21 -6z"/>
<path d="M885 3670 c8 -9 12 -20 8 -25 -5 -4 2 -2 15 4 18 10 21 15 12 26 -6
8 -20 13 -30 12 -17 -1 -18 -3 -5 -17z"/>
<path d="M925 3650 c-16 -18 -16 -20 -2 -20 10 0 17 -4 17 -10 0 -5 7 -7 15
-4 8 4 15 1 15 -6 0 -6 5 -8 10 -5 6 3 10 1 10 -5 0 -6 4 -9 9 -6 5 4 11 1 13
-6 4 -12 28 -3 28 12 0 5 -14 19 -32 31 -18 14 -28 17 -24 8 4 -7 0 -5 -8 5
-9 11 -16 16 -16 10 0 -5 -4 -3 -8 4 -7 9 -13 8 -27 -8z"/>
<path d="M1050 3605 c-1 -5 -3 -18 -5 -27 -2 -10 2 -15 10 -12 7 3 16 1 20 -5
10 -17 21 -13 21 8 0 16 -3 18 -15 8 -12 -10 -14 -9 -8 6 4 10 3 16 -2 12 -5
-3 -12 1 -14 7 -3 7 -6 9 -7 3z"/>
<path d="M755 3011 c-3 -5 -2 -12 3 -15 5 -3 9 1 9 9 0 17 -3 19 -12 6z"/>
<path d="M1480 2563 c0 -7 -20 -11 -61 -9 -55 2 -62 0 -70 -21 -5 -13 -14 -23
-21 -23 -9 0 -8 -3 2 -10 12 -7 12 -10 1 -10 -7 0 -11 -6 -7 -15 3 -8 0 -15
-6 -15 -6 0 -8 -3 -5 -7 4 -3 -1 -15 -10 -26 -11 -12 -12 -17 -4 -12 10 6 12
4 5 -6 -4 -8 -10 -23 -11 -34 -2 -11 -8 -21 -13 -23 -6 -2 -10 -14 -10 -27 0
-12 -6 -28 -14 -34 -7 -6 -12 -22 -10 -36 1 -14 -2 -25 -7 -25 -4 0 -5 -7 -2
-17 4 -10 2 -14 -5 -9 -6 3 -13 2 -17 -4 -3 -5 -1 -10 6 -10 8 0 8 -4 -1 -15
-7 -8 -9 -15 -4 -15 4 0 -1 -7 -12 -16 -10 -8 -13 -12 -5 -8 10 5 13 3 8 -8
-6 -16 10 -38 28 -38 5 0 2 7 -8 14 -17 13 -16 14 6 12 17 -1 23 -6 19 -16 -4
-12 -2 -12 8 -3 9 8 19 9 32 2 11 -6 18 -6 18 0 0 5 9 9 19 8 14 -1 17 -5 10
-13 -7 -8 -6 -15 2 -20 8 -4 9 -3 5 4 -4 7 -4 12 1 13 4 0 16 2 25 4 9 2 22
-3 29 -11 9 -11 9 -14 0 -14 -7 0 -9 -5 -5 -12 4 -7 -3 -4 -16 7 -13 11 -21
15 -17 9 4 -7 -14 -10 -53 -10 -32 1 -56 5 -53 9 2 4 -7 6 -21 3 -14 -3 -26
-1 -26 3 0 4 -7 8 -14 8 -11 0 -13 -5 -5 -19 5 -10 6 -18 2 -17 -4 1 -15 1
-23 0 -13 -1 -13 -2 0 -11 12 -7 12 -10 1 -10 -7 0 -11 -6 -7 -15 3 -8 1 -15
-4 -15 -6 0 -10 -9 -10 -19 0 -11 -4 -22 -10 -26 -5 -3 -7 -12 -3 -20 3 -8 0
-15 -6 -15 -6 0 -11 -5 -11 -11 0 -5 6 -7 13 -3 8 5 8 3 -2 -9 -7 -9 -17 -15
-21 -12 -4 2 -6 -7 -4 -21 3 -32 -5 -56 -17 -48 -5 3 -6 -3 -2 -12 5 -12 3
-15 -6 -9 -10 6 -11 3 -2 -14 9 -16 9 -21 0 -21 -6 0 -9 -6 -6 -14 3 -8 -1
-20 -9 -27 -11 -9 -12 -14 -3 -20 8 -4 4 -9 -10 -14 -21 -6 -22 -7 -4 -21 13
-11 14 -14 3 -12 -8 2 -14 -3 -13 -9 2 -7 -2 -13 -8 -13 -8 0 -7 -5 1 -16 11
-12 11 -15 1 -12 -8 2 -15 -6 -17 -16 -1 -11 -13 -33 -25 -50 -13 -18 -16 -25
-6 -18 14 12 15 11 7 -17 -8 -30 -8 -30 14 -15 21 13 25 13 36 -1 11 -14 15
-14 36 0 17 11 25 12 30 3 4 -7 3 -8 -4 -4 -7 4 -12 2 -12 -3 0 -14 17 -14 25
-1 3 6 11 10 16 10 6 0 7 -6 3 -12 -6 -10 -5 -10 8 -1 8 7 18 10 21 6 4 -3 7
-1 7 5 0 7 4 12 10 12 5 0 9 -3 9 -7 -4 -22 3 -25 15 -7 14 18 15 18 22 1 5
-14 9 -15 15 -6 6 10 11 10 23 0 13 -11 17 -11 22 3 3 9 10 16 15 16 6 0 4
-10 -2 -22 l-12 -23 25 22 c23 22 25 22 42 5 11 -9 16 -11 12 -4 -8 13 10 17
18 4 6 -11 63 -8 73 3 5 4 2 5 -6 0 -10 -6 -12 -4 -6 5 6 10 11 9 21 -4 9 -13
13 -14 17 -4 4 10 8 10 16 -2 10 -13 11 -13 11 0 0 12 2 13 9 1 7 -11 9 -11
14 0 4 12 7 11 16 -1 7 -10 11 -11 11 -2 0 6 7 12 16 12 8 0 13 -4 10 -9 -7
-10 9 -8 38 4 12 5 21 3 27 -6 6 -10 9 -10 9 -1 0 6 7 12 16 12 14 0 15 -2 3
-17 -13 -17 -12 -17 6 -2 23 19 76 22 87 5 6 -8 8 -7 8 2 0 6 6 12 14 12 8 0
17 -6 19 -12 4 -10 6 -10 6 0 1 6 7 12 15 12 8 0 17 -6 19 -12 4 -10 6 -10 6
0 1 6 7 12 15 12 8 0 17 -6 19 -12 4 -10 6 -10 6 0 1 15 33 16 49 0 9 -9 13
-7 18 5 3 9 10 17 15 17 4 0 6 -6 3 -14 -6 -16 19 -16 33 -1 4 4 2 5 -6 0 -10
-6 -12 -4 -7 4 6 9 13 8 29 -6 11 -10 17 -12 13 -5 -4 6 -2 12 3 12 6 0 11 -6
11 -12 0 -10 3 -9 9 1 6 10 10 10 16 2 5 -9 13 -8 29 3 21 13 25 13 41 -2 10
-9 15 -11 11 -4 -9 15 6 16 22 0 9 -9 13 -7 18 5 3 9 10 17 15 17 4 0 5 -8 2
-17 -6 -16 -5 -16 11 -4 15 13 19 13 27 0 6 -10 9 -11 9 -1 0 7 5 10 10 7 6
-3 10 -1 10 4 0 6 4 11 10 11 5 0 9 -3 9 -7 -4 -22 3 -25 17 -7 8 10 13 13 9
7 -3 -7 -1 -13 4 -13 6 0 11 5 11 11 0 5 5 7 12 3 6 -4 8 -3 4 4 -3 6 -2 13 4
17 6 4 8 11 5 16 -4 5 0 9 7 9 9 0 9 3 -2 10 -10 6 -11 10 -3 10 7 0 12 3 12
8 -4 22 2 42 11 37 14 -8 8 16 -7 32 -15 17 -45 17 -62 1 -11 -10 -13 -10 -7
0 4 6 4 12 -1 13 -4 0 -18 2 -30 3 -13 2 -23 -2 -23 -7 0 -5 -8 -3 -17 4 -14
12 -16 12 -8 0 6 -11 4 -13 -11 -6 -26 10 -124 12 -124 2 0 -5 -5 -5 -12 -1
-16 10 -148 11 -148 0 0 -5 -8 -2 -17 5 -11 10 -14 10 -9 2 4 -7 2 -13 -3 -13
-6 0 -11 5 -11 12 0 6 -7 3 -16 -8 -8 -10 -13 -14 -10 -8 3 7 -1 14 -9 18 -8
3 -15 0 -15 -7 0 -8 -4 -6 -10 3 -7 11 -10 11 -10 2 0 -10 -5 -10 -22 -1 -18
10 -20 9 -14 -7 6 -18 5 -18 -9 0 -8 11 -15 14 -15 7 0 -7 -5 -9 -11 -6 -17
11 -59 13 -59 3 0 -5 -6 -6 -12 -2 -18 11 -48 12 -48 2 0 -5 -5 -6 -12 -2 -16
10 -58 12 -52 2 3 -4 0 -8 -6 -8 -5 0 -9 14 -8 30 1 17 6 30 11 30 4 0 5 5 2
10 -3 6 -1 10 6 10 7 0 9 3 6 7 -4 3 -1 13 6 21 10 13 9 14 -3 8 -8 -4 -4 2
10 13 14 11 20 21 13 21 -7 0 -10 7 -7 15 4 8 10 12 15 9 5 -3 12 3 16 12 10
26 45 64 53 59 5 -3 11 2 14 11 3 9 13 14 20 11 8 -3 16 -1 19 6 2 6 14 12 28
13 35 2 53 8 61 19 5 6 8 4 9 -5 0 -10 3 -8 9 5 7 17 9 17 9 3 1 -22 2 -22 37
-3 25 13 30 13 46 -2 16 -14 18 -14 24 1 5 13 9 14 20 5 11 -9 14 -9 14 0 0 9
5 9 20 1 14 -7 20 -7 20 0 0 5 5 10 11 10 5 0 8 -4 5 -8 -3 -5 1 -9 9 -9 8 0
15 3 15 6 0 8 58 6 66 -2 3 -3 16 -2 28 3 12 4 29 4 38 -1 11 -6 19 -5 23 1 5
8 11 7 21 -1 10 -8 14 -8 14 0 0 7 8 8 23 2 12 -5 31 -5 42 -1 11 4 28 3 38
-2 11 -6 17 -5 17 3 0 8 4 8 13 1 16 -14 51 28 53 62 1 19 -4 22 -23 18 -13
-2 -26 -8 -29 -13 -9 -15 -24 -10 -24 8 0 15 -2 14 -16 -3 -11 -13 -17 -15
-20 -6 -3 6 -10 12 -15 12 -6 0 -8 -4 -5 -9 3 -4 -8 -7 -24 -5 -19 2 -30 -1
-30 -9 0 -6 -5 -4 -11 6 -7 12 -15 15 -27 9 -9 -4 -32 -7 -50 -6 -22 2 -30 -1
-25 -9 4 -7 -1 -6 -10 2 -9 7 -17 10 -17 6 0 -4 -7 -2 -15 5 -9 7 -15 8 -15 2
0 -6 -8 -9 -17 -7 -10 1 -17 8 -15 15 1 6 -2 9 -8 5 -6 -3 -8 -11 -5 -16 4 -5
1 -9 -4 -9 -6 0 -11 6 -11 13 0 8 -4 7 -10 -3 -6 -10 -10 -11 -10 -2 0 6 -5
12 -11 12 -5 0 -8 -4 -5 -8 2 -4 -6 -8 -19 -8 -17 0 -21 3 -15 11 6 7 6 16 2
20 -4 5 1 5 11 2 10 -4 16 -3 13 2 -3 5 1 12 10 15 8 3 13 2 10 -3 -3 -5 3
-11 14 -14 11 -3 19 -2 18 2 -2 19 3 24 12 11 7 -12 15 -13 40 -3 21 8 32 8
37 1 3 -6 2 -8 -3 -5 -5 3 -10 -3 -10 -14 0 -19 1 -19 16 -1 12 14 28 18 73
17 32 0 61 3 63 7 3 4 10 8 17 8 8 0 8 -3 -1 -12 -15 -15 -15 -28 -1 -28 5 0
7 5 3 12 -5 8 -2 9 10 5 14 -6 17 -3 12 8 -4 11 -2 14 7 8 20 -12 40 -13 56 0
10 8 13 8 8 1 -4 -7 0 -15 9 -18 8 -3 12 -2 9 3 -3 5 -1 12 5 16 5 3 10 1 10
-6 0 -8 5 -7 17 2 11 10 14 10 9 2 -4 -7 -4 -13 1 -13 12 0 40 20 29 20 -6 0
-1 7 10 16 10 8 13 13 7 9 -8 -4 -13 0 -13 10 0 10 5 14 13 9 8 -5 9 -4 2 4
-17 18 -71 19 -60 1 4 -6 -2 -5 -13 2 -17 11 -24 10 -38 -2 -16 -12 -17 -12
-12 2 6 15 -2 17 -55 10 -5 -1 -5 -7 -1 -13 6 -9 3 -9 -9 0 -9 8 -25 11 -38 7
-14 -5 -19 -4 -15 4 4 6 2 11 -3 11 -6 0 -11 -8 -11 -17 -1 -17 -1 -17 -11 0
-10 17 -12 17 -36 2 -14 -10 -22 -12 -18 -5 5 8 1 11 -11 9 -11 -2 -25 0 -31
4 -9 6 -13 2 -13 -10 -1 -17 -1 -17 -11 0 -10 17 -12 17 -36 2 -14 -10 -22
-12 -18 -5 5 8 1 11 -11 9 -11 -2 -25 0 -31 4 -9 6 -13 2 -13 -10 -1 -17 -1
-17 -11 0 -6 9 -15 15 -21 11 -14 -9 -97 -11 -140 -3 -25 4 -44 2 -58 -8 -17
-12 -19 -12 -14 0 4 11 -2 14 -23 11 -15 -2 -23 -2 -16 2 7 3 9 12 6 20 -3 8
-1 14 5 14 5 0 13 7 16 16 4 10 2 13 -6 8 -7 -4 -1 10 12 31 13 21 18 35 11
31 -8 -6 -7 1 3 16 9 14 14 33 10 42 -4 9 -1 16 6 16 7 0 10 7 6 16 -4 10 -2
13 6 8 7 -5 9 -2 5 8 -7 21 33 40 56 26 11 -6 17 -5 17 2 0 7 6 8 17 2 9 -5
28 -7 42 -3 32 9 42 8 59 -2 6 -5 12 -5 12 0 0 10 73 9 89 -1 6 -4 11 -2 11 5
0 8 4 8 16 -2 9 -7 18 -9 22 -3 8 11 72 12 90 1 6 -5 12 -5 12 0 0 10 73 9 89
-1 6 -4 11 -2 11 5 0 8 4 8 16 -2 9 -7 18 -9 22 -3 8 11 72 12 90 1 6 -5 12
-5 12 0 0 10 132 9 148 -1 7 -4 12 -4 12 1 0 10 73 9 89 -1 6 -4 11 -2 11 5 0
8 4 8 16 -2 9 -7 18 -9 22 -3 8 11 72 12 90 1 6 -5 12 -5 12 0 0 10 73 9 89
-1 6 -4 11 -2 11 5 0 8 4 8 16 -2 9 -7 18 -9 22 -3 4 5 18 9 32 9 20 0 25 -5
24 -25 -2 -39 -3 -42 -15 -34 -7 4 -6 -2 2 -17 11 -21 11 -23 -4 -11 -13 11
-15 10 -13 -12 2 -15 0 -26 -5 -26 -5 0 -6 -7 -3 -15 4 -8 1 -15 -7 -15 -7 0
-9 -3 -6 -7 4 -3 2 -12 -4 -20 -6 -7 -8 -13 -4 -13 5 0 0 -9 -9 -19 -14 -16
-15 -23 -6 -40 6 -13 16 -19 23 -14 22 14 57 11 68 -5 9 -15 10 -15 5 0 -6 22
3 29 25 18 12 -7 20 -6 25 2 4 7 3 8 -4 4 -7 -4 -12 -3 -12 3 0 6 14 9 30 7
25 -3 28 -1 19 11 -10 11 -9 12 5 7 9 -3 16 -10 16 -15 0 -5 5 -9 11 -9 5 0 7
5 4 10 -3 6 1 10 9 10 22 0 20 -14 -6 -36 -12 -10 -18 -13 -14 -6 5 7 1 12 -9
12 -11 0 -15 -5 -11 -15 4 -12 2 -13 -12 -6 -11 6 -24 6 -35 0 -12 -7 -17 -6
-17 3 0 8 -5 5 -11 -5 -10 -18 -11 -18 -31 0 -20 18 -21 18 -10 -3 10 -20 9
-21 -18 -19 -17 1 -32 -1 -35 -5 -3 -5 -14 -6 -24 -3 -16 4 -21 -2 -26 -31 -4
-20 -11 -36 -16 -36 -5 0 -6 -7 -3 -15 4 -8 2 -15 -4 -15 -6 0 -9 -12 -7 -26
1 -15 -3 -28 -11 -31 -8 -3 -11 -9 -8 -14 3 -5 0 -9 -6 -9 -6 0 -8 -5 -5 -10
4 -6 -1 -24 -9 -42 -9 -17 -16 -39 -16 -49 0 -10 -5 -21 -11 -25 -8 -5 -8 -9
1 -14 9 -6 6 -10 -9 -15 -19 -6 -20 -9 -9 -22 10 -13 10 -17 0 -20 -6 -3 -10
-9 -6 -14 3 -5 -3 -9 -13 -9 -14 0 -15 -2 -4 -9 9 -6 10 -11 2 -15 -6 -4 -9
-11 -6 -16 3 -5 -2 -15 -10 -23 -11 -12 -12 -17 -2 -20 9 -4 9 -6 -1 -6 -7 -1
-10 -5 -7 -11 3 -5 2 -10 -4 -10 -6 0 -8 -7 -5 -15 4 -8 1 -15 -6 -15 -6 0 -9
-4 -6 -9 4 -5 2 -11 -4 -13 -6 -2 -6 -14 -1 -33 5 -16 10 -24 10 -16 1 11 4
11 18 0 11 -10 14 -10 9 -1 -4 6 -3 12 3 12 5 0 13 -5 16 -10 4 -7 13 -6 27 1
16 9 23 8 29 -2 7 -11 9 -11 9 -1 0 8 5 10 13 5 18 -12 31 -10 43 6 9 11 12
12 19 1 6 -9 4 -11 -5 -5 -9 5 -11 4 -6 -4 6 -9 11 -9 23 0 12 10 16 10 24 -2
6 -10 9 -10 9 -1 0 6 7 12 15 12 8 0 15 -5 15 -12 0 -6 6 -4 13 6 13 18 14 18
21 0 6 -15 9 -16 16 -4 7 12 11 12 26 -1 15 -12 17 -12 9 0 -6 11 -4 13 8 8
10 -4 17 -1 17 5 0 9 3 9 11 1 6 -6 17 -9 24 -6 8 2 24 -1 37 -8 21 -11 22
-11 9 5 -12 14 -12 16 3 10 9 -3 16 -10 16 -16 0 -5 7 -2 16 6 8 9 20 14 25
11 5 -4 6 1 3 9 -3 8 2 26 11 40 14 20 14 26 4 26 -9 1 -8 4 4 11 9 6 15 14
12 19 -3 5 -1 11 4 15 5 3 8 14 6 25 -3 13 0 18 7 14 7 -5 9 -2 5 9 -3 9 1 18
10 21 13 5 13 9 2 23 -12 14 -12 16 0 8 11 -6 13 -2 9 18 -3 15 -1 24 3 21 5
-3 9 2 9 11 0 9 4 13 10 10 6 -4 6 3 0 21 -10 25 -9 26 7 13 9 -8 14 -9 10 -2
-4 6 -3 14 1 17 5 3 8 17 7 31 -2 16 4 31 18 41 12 9 15 14 6 11 -9 -3 -16 1
-16 9 0 7 4 11 9 8 8 -5 12 9 9 34 -1 6 3 12 9 12 6 0 8 5 5 10 -3 6 -2 10 2
10 8 0 13 19 16 63 1 9 7 17 15 17 7 0 10 4 7 10 -7 11 12 51 29 62 7 5 6 8
-3 8 -11 0 -11 3 0 16 10 13 10 17 0 24 -7 4 -21 5 -31 3 -11 -3 -19 2 -22 15
-3 11 0 19 8 19 8 0 14 -7 14 -16 1 -14 2 -14 10 1 6 10 19 15 30 13 11 -2 18
0 15 5 -3 5 3 18 14 29 11 11 17 22 14 24 -3 3 4 12 16 19 12 7 21 18 21 25 0
7 6 13 14 13 8 0 16 5 18 11 2 6 15 13 28 14 40 4 41 5 36 13 -3 5 1 9 9 9 8
0 12 -5 8 -10 -3 -5 4 -4 15 2 27 14 35 14 26 -1 -6 -10 -5 -10 8 -1 8 7 18
10 21 6 4 -3 7 -1 7 6 0 8 5 9 18 2 10 -5 24 -6 32 -1 7 4 24 4 37 -1 14 -5
23 -5 23 1 0 6 -5 10 -12 10 -6 0 -8 3 -5 6 4 4 13 1 22 -6 9 -7 18 -10 21 -7
3 3 18 1 34 -3 24 -7 28 -6 23 8 -5 13 -2 13 14 -3 17 -17 17 -22 6 -30 -8 -6
-13 -17 -11 -25 2 -8 -2 -14 -8 -13 -6 1 -11 -4 -11 -12 0 -8 5 -11 10 -8 6 4
8 0 4 -10 -6 -17 4 -23 16 -10 4 4 25 6 47 6 22 0 43 3 46 8 3 5 10 9 16 9 6
0 5 -6 -3 -16 -12 -15 -10 -15 24 0 35 14 41 13 38 -7 -1 -5 3 -6 9 -2 6 3 8
11 5 16 -4 5 -1 9 4 9 6 0 11 -6 11 -12 0 -9 4 -8 10 2 9 13 10 13 10 0 0 -13
1 -13 11 0 8 12 10 10 5 -10 l-5 -25 19 25 c16 20 22 22 29 11 7 -11 9 -11 14
0 3 9 6 6 6 -7 1 -27 -9 -36 -26 -22 -11 9 -12 7 -7 -8 4 -14 3 -15 -4 -5 -8
10 -14 11 -32 1 -12 -7 -20 -8 -16 -2 3 5 -5 10 -19 10 -14 0 -22 -4 -19 -9 3
-5 0 -9 -5 -9 -10 0 -15 14 -12 33 1 5 -3 6 -9 2 -6 -3 -8 -11 -5 -16 4 -5 3
-9 -2 -10 -4 0 -16 -2 -26 -4 -9 -2 -15 1 -11 6 8 13 -10 11 -25 -3 -11 -11
-12 -9 -6 10 l7 24 -20 -20 c-20 -20 -55 -24 -80 -8 -8 5 -11 2 -10 -6 2 -7
-3 -12 -10 -10 -8 1 -11 -2 -7 -8 3 -5 2 -10 -4 -10 -5 0 -8 -9 -6 -20 2 -11
-1 -20 -6 -20 -6 0 -7 -5 -4 -10 3 -6 -1 -13 -10 -16 -13 -6 -14 -8 -3 -15 9
-6 10 -9 1 -9 -7 0 -10 -7 -6 -17 5 -11 3 -14 -6 -8 -10 6 -11 3 -2 -14 10
-17 9 -20 -4 -15 -11 5 -13 2 -9 -10 3 -9 1 -16 -4 -16 -6 0 -9 -9 -7 -20 2
-11 0 -20 -5 -20 -5 0 -6 -7 -3 -17 4 -10 2 -14 -5 -9 -7 4 -10 -1 -7 -14 2
-11 -1 -20 -7 -20 -6 0 -8 -3 -5 -7 4 -3 1 -13 -6 -21 -10 -13 -9 -15 3 -8 8
4 6 0 -4 -8 -11 -9 -16 -16 -12 -16 5 0 1 -12 -9 -26 -9 -15 -12 -23 -6 -20
18 11 13 -5 -6 -21 -10 -8 -13 -12 -6 -8 8 4 8 -3 -2 -22 -8 -15 -15 -34 -15
-41 0 -7 -4 -10 -10 -7 -6 3 -7 -1 -4 -10 4 -8 0 -23 -7 -32 -12 -14 -12 -16
1 -8 12 6 13 5 3 -6 -7 -7 -13 -21 -13 -31 0 -10 -5 -18 -11 -18 -6 0 -9 -9
-6 -20 3 -11 2 -20 -3 -20 -4 0 -11 -7 -14 -16 -4 -10 -2 -13 7 -8 8 5 7 2 -2
-9 -7 -9 -11 -17 -7 -17 3 0 -4 -10 -15 -21 -16 -16 -18 -23 -9 -29 9 -6 9 -9
-1 -13 -10 -4 -8 -6 4 -6 10 -1 15 -6 12 -12 -4 -6 3 -5 14 3 18 11 23 11 30
-1 7 -11 9 -11 14 0 4 11 7 12 18 2 18 -17 29 -16 29 2 0 8 5 15 11 15 5 0 8
-4 5 -9 -3 -5 1 -11 9 -15 8 -3 17 0 21 6 5 7 2 8 -6 3 -9 -6 -11 -4 -5 5 6
10 11 9 21 -4 9 -13 13 -14 17 -4 4 10 8 10 16 -2 8 -12 11 -12 11 -1 0 10 3
11 13 3 10 -9 19 -7 35 4 20 14 23 14 28 -1 6 -13 8 -14 15 -3 7 11 11 10 19
-2 5 -8 10 -10 10 -5 0 6 9 11 20 12 13 1 18 -2 14 -10 -5 -8 -3 -8 7 1 7 6
20 12 28 12 14 0 14 -1 1 -10 -9 -6 -10 -10 -3 -10 6 0 15 5 19 11 4 8 9 7 15
-2 6 -10 9 -11 9 -1 0 6 7 12 15 12 8 0 15 -6 15 -12 0 -9 4 -8 10 2 8 13 13
13 31 2 11 -8 18 -9 14 -3 -3 6 1 11 10 11 9 0 13 -5 10 -11 -4 -6 2 -5 13 2
17 11 24 10 38 -2 11 -9 15 -9 10 -1 -10 16 16 16 33 0 11 -10 13 -10 7 0 -4
7 -1 12 8 12 9 0 16 -6 16 -12 0 -9 4 -8 10 2 8 13 13 13 31 2 11 -8 18 -9 14
-3 -3 7 2 11 14 11 10 0 22 -6 24 -12 4 -10 6 -10 6 0 1 8 6 10 13 6 19 -12
48 -12 55 -1 4 6 1 7 -7 2 -9 -6 -11 -4 -5 5 6 10 11 9 21 -4 9 -13 13 -14 17
-4 4 10 8 10 16 -2 8 -12 11 -12 11 -1 0 10 3 11 13 2 10 -8 19 -7 33 3 17 13
21 12 38 -2 11 -9 16 -11 12 -4 -9 15 6 16 22 0 9 -9 13 -7 18 5 3 9 10 17 15
17 4 0 6 -6 3 -13 -3 -8 2 -14 10 -14 8 0 13 4 10 9 -8 13 10 10 25 -4 10 -9
12 -9 7 -1 -8 15 33 14 53 -1 12 -9 13 -8 6 3 -6 11 -4 13 7 8 20 -7 45 12 50
38 2 11 9 19 14 18 6 -1 10 13 10 30 -1 20 4 31 12 30 7 -2 12 9 12 30 0 22
-3 28 -9 18 -6 -9 -11 -10 -15 -2 -11 18 -26 13 -19 -6 6 -17 5 -17 -12 0 -14
15 -20 16 -26 5 -7 -10 -9 -10 -9 2 0 11 -2 12 -8 3 -5 -8 -13 -9 -22 -3 -19
12 -33 13 -26 2 3 -5 -1 -9 -9 -9 -8 0 -12 3 -11 6 2 3 -7 7 -20 7 -14 1 -21
-2 -18 -8 4 -6 -3 -5 -15 1 -18 10 -21 9 -22 -6 0 -16 -1 -16 -9 2 -5 11 -9
14 -9 7 -1 -9 -6 -10 -20 -2 -24 13 -34 13 -26 1 6 -10 -27 -7 -45 4 -6 3 -10
0 -10 -7 -1 -8 -6 -6 -15 6 -15 19 -15 19 -15 1 0 -15 -3 -16 -12 -7 -16 16
-31 15 -22 0 6 -10 4 -10 -7 -1 -16 16 -33 17 -23 1 5 -7 3 -8 -7 -2 -8 5 -22
7 -33 5 -12 -2 -16 1 -11 9 6 9 2 9 -15 0 -12 -7 -25 -8 -29 -4 -6 9 -27 16
-48 17 -7 0 -13 4 -13 9 0 5 -4 6 -10 3 -6 -3 -10 1 -10 9 0 9 -4 16 -8 16 -5
0 -9 6 -9 13 0 6 -4 20 -8 30 -4 10 -3 17 5 17 6 0 9 4 5 9 -3 5 0 13 6 17 8
4 7 9 -2 15 -11 6 -10 9 4 15 9 3 17 10 17 16 0 5 -6 6 -12 3 -7 -4 -5 0 5 8
13 11 15 17 6 22 -8 6 -4 12 12 21 13 7 20 13 15 14 -5 0 -2 8 5 17 12 14 12
15 0 9 -10 -7 -12 -3 -6 15 4 13 12 26 16 27 5 2 7 8 3 13 -3 5 -1 9 5 9 6 0
8 6 5 14 -3 8 -1 17 5 21 6 3 11 15 11 26 0 10 5 19 12 19 6 0 8 3 5 6 -3 4
-1 16 5 28 11 20 10 20 -8 6 -13 -9 -11 -5 5 12 12 15 20 31 16 37 -3 6 0 11
7 11 9 0 9 3 -2 10 -13 8 -12 10 4 10 11 0 16 3 13 7 -4 3 -2 13 5 20 15 18
-8 35 -34 27 -10 -3 -18 -1 -18 4 0 5 -7 9 -15 9 -8 0 -15 -4 -15 -9 0 -5 -5
-6 -10 -3 -18 11 -62 16 -56 6 7 -11 -20 -8 -31 4 -4 4 -3 5 3 2 7 -4 10 3 7
21 -3 19 -2 23 5 13 8 -11 10 -11 15 0 4 10 6 10 6 2 1 -7 6 -13 12 -13 5 0 8
3 5 8 -2 4 13 7 34 7 28 0 36 -3 29 -11 -7 -8 -4 -11 8 -10 11 0 17 -5 15 -14
-3 -13 -1 -13 10 -1 10 11 10 14 1 18 -7 3 -13 9 -13 15 0 7 4 7 13 1 22 -17
47 -23 44 -10 -1 7 3 11 9 10 6 -1 10 11 9 27 -1 17 4 31 13 35 8 3 11 12 8
20 -3 8 0 15 7 15 8 0 6 4 -3 10 -12 8 -12 10 5 10 15 0 16 3 7 9 -11 7 -11
11 1 22 7 8 13 22 11 32 -1 9 4 17 12 17 9 0 12 5 9 10 -4 6 -1 19 6 28 7 9 9
14 5 10 -5 -4 -15 0 -23 10 -8 9 -11 11 -8 4 6 -11 -1 -12 -30 -8 -26 4 -34 3
-29 -6 5 -7 3 -8 -6 -3 -18 11 -109 12 -114 0 -3 -5 -5 -5 -5 2 -1 7 -8 10
-17 6 -9 -3 -20 0 -25 8 -5 8 -9 9 -9 3 0 -7 -33 -10 -97 -9 -57 1 -104 -3
-112 -9 -11 -8 -13 -8 -7 2 6 10 1 11 -20 6 -21 -6 -25 -4 -19 7 7 12 6 12 -7
1 -8 -7 -24 -9 -33 -5 -14 5 -16 3 -10 -7 6 -9 4 -11 -5 -5 -18 11 -109 12
-114 0 -3 -5 -5 -5 -5 2 -1 7 -8 10 -17 6 -9 -3 -20 0 -25 8 -5 8 -9 9 -9 3 0
-7 -33 -10 -97 -9 -57 1 -104 -3 -112 -9 -11 -8 -13 -8 -7 2 6 10 1 11 -20 6
-21 -6 -25 -4 -19 7 7 12 6 12 -7 1 -8 -7 -24 -9 -33 -5 -14 5 -16 3 -10 -7 6
-9 4 -11 -5 -5 -18 11 -109 12 -114 0 -3 -5 -5 -5 -5 2 -1 7 -8 10 -17 6 -9
-3 -20 0 -25 8 -5 8 -9 9 -9 3 0 -7 -33 -10 -97 -9 -57 1 -104 -3 -112 -9 -11
-8 -13 -8 -7 2 6 10 1 11 -20 6 -21 -6 -25 -4 -19 7 7 12 6 12 -7 1 -8 -7 -24
-9 -33 -5 -14 5 -16 3 -10 -7 6 -9 4 -11 -5 -5 -18 11 -109 12 -114 0 -3 -5
-5 -5 -5 2 -1 7 -8 10 -17 6 -9 -3 -20 0 -25 8 -5 8 -9 9 -9 3 0 -7 -33 -10
-97 -9 -57 1 -104 -3 -112 -9 -11 -8 -13 -8 -7 2 6 10 1 11 -20 6 -21 -6 -25
-4 -19 7 7 12 6 12 -7 1 -8 -7 -24 -9 -33 -5 -14 5 -16 3 -10 -7 6 -9 4 -11
-5 -5 -18 11 -109 12 -114 0 -3 -5 -5 -5 -5 2 -1 7 -8 10 -17 6 -9 -3 -20 0
-25 8 -5 8 -9 9 -9 3 0 -7 -33 -10 -97 -9 -57 1 -104 -3 -112 -9 -11 -8 -13
-8 -7 2 6 10 1 11 -20 6 -21 -6 -25 -4 -19 7 7 12 6 12 -7 1 -8 -7 -24 -9 -33
-5 -14 5 -16 3 -10 -7 6 -9 4 -11 -5 -5 -18 11 -109 12 -114 0 -3 -5 -5 -5 -5
2 -1 7 -8 10 -17 6 -9 -3 -20 0 -25 8 -5 8 -9 9 -9 3 0 -7 -33 -10 -97 -9 -57
1 -104 -3 -112 -9 -11 -8 -13 -8 -7 2 6 10 1 11 -20 6 -21 -6 -25 -4 -19 7 7
12 6 12 -7 1 -8 -7 -24 -9 -33 -5 -14 5 -16 3 -10 -7 6 -9 4 -11 -5 -5 -18 11
-109 12 -114 0 -3 -5 -5 -5 -5 2 -1 7 -8 10 -17 6 -9 -3 -20 0 -25 8 -5 9 -9
10 -9 2z m1965 -342 c-3 -5 -1 -12 5 -16 5 -3 10 -14 10 -23 0 -15 -2 -15 -11
-2 -8 11 -12 12 -16 3 -2 -7 -16 -13 -29 -13 -13 0 -24 -6 -24 -12 0 -10 -3
-9 -9 1 -6 10 -10 10 -16 1 -4 -6 -14 -9 -23 -5 -8 3 -19 0 -23 -7 -6 -9 -11
-9 -23 1 -14 11 -16 11 -16 -3 0 -10 -4 -15 -9 -12 -11 7 -3 44 12 53 5 3 8 2
5 -3 -3 -5 1 -15 9 -23 13 -12 14 -11 8 8 -3 11 -3 21 2 22 59 8 81 5 76 -10
-3 -9 5 -5 17 9 19 21 21 22 16 5 -5 -15 -1 -13 15 8 19 25 37 38 24 18z m38
-24 c13 -20 13 -24 1 -24 -8 0 -14 4 -14 8 0 4 -3 14 -6 23 -9 24 1 19 19 -7z
m-2033 -116 c0 -4 7 -8 15 -8 11 0 12 4 3 14 -9 11 -7 12 8 7 10 -4 24 -11 31
-16 7 -6 15 -3 23 9 10 16 11 16 7 -5 -3 -12 -1 -20 3 -17 12 8 41 -6 34 -16
-3 -5 -10 -7 -15 -3 -5 3 -17 0 -26 -8 -10 -8 -14 -8 -10 -1 4 6 3 14 -3 18
-5 3 -10 2 -10 -3 0 -6 -13 -7 -33 -3 -18 5 -40 7 -48 5 -11 -1 -16 6 -16 21
0 17 4 21 18 18 11 -3 19 -9 19 -12z m150 -1 c-8 -5 -5 -9 9 -13 12 -3 19 -2
16 2 -2 4 15 5 38 2 23 -4 52 -6 65 -5 12 1 22 -3 22 -9 0 -5 7 -4 15 3 13 11
18 10 31 -6 9 -10 13 -14 10 -8 -3 7 1 14 8 17 8 3 16 1 18 -5 3 -8 10 -7 26
1 17 9 22 9 22 0 0 -8 4 -8 13 -1 7 6 18 7 27 2 7 -4 24 -4 37 1 33 12 37 11
23 -6 -7 -8 -9 -15 -4 -15 4 0 -1 -6 -12 -14 -23 -17 -32 -12 -15 8 11 13 9
13 -13 3 -16 -8 -20 -14 -13 -19 7 -4 2 -6 -11 -5 -14 1 -21 6 -18 14 4 10 -2
10 -24 -2 -21 -11 -31 -12 -36 -3 -5 7 -3 8 6 3 8 -5 11 -4 6 3 -4 7 -17 8
-36 2 -17 -5 -32 -5 -35 0 -3 5 -12 7 -20 3 -9 -3 -15 1 -15 8 0 11 -2 11 -9
0 -8 -13 -12 -13 -27 0 -14 11 -18 11 -22 1 -3 -10 -8 -8 -18 5 -11 14 -13 14
-9 2 4 -10 0 -16 -10 -16 -8 0 -15 5 -15 11 0 6 -5 4 -10 -4 -8 -12 -10 -12
-10 -1 0 11 -3 11 -16 0 -13 -11 -15 -10 -12 3 1 10 -5 23 -15 30 -16 12 -15
13 14 14 18 1 26 -2 19 -6z m-530 -584 c0 -3 -4 -8 -10 -11 -5 -3 -10 -1 -10
4 0 6 5 11 10 11 6 0 10 -2 10 -4z m360 0 c0 -3 -4 -8 -10 -11 -5 -3 -10 -1
-10 4 0 6 5 11 10 11 6 0 10 -2 10 -4z m680 0 c0 -3 -4 -8 -10 -11 -5 -3 -10
-1 -10 4 0 6 5 11 10 11 6 0 10 -2 10 -4z m760 0 c0 -3 -4 -8 -10 -11 -5 -3
-10 -1 -10 4 0 6 5 11 10 11 6 0 10 -2 10 -4z m80 0 c0 -3 -4 -8 -10 -11 -5
-3 -10 -1 -10 4 0 6 5 11 10 11 6 0 10 -2 10 -4z m1040 0 c0 -3 -4 -8 -10 -11
-5 -3 -10 -1 -10 4 0 6 5 11 10 11 6 0 10 -2 10 -4z m560 0 c0 -3 -4 -8 -10
-11 -5 -3 -10 -1 -10 4 0 6 5 11 10 11 6 0 10 -2 10 -4z m120 0 c0 -3 -4 -8
-10 -11 -5 -3 -10 -1 -10 4 0 6 5 11 10 11 6 0 10 -2 10 -4z"/>
<path d="M3310 2179 c0 -5 5 -7 10 -4 6 3 10 1 10 -5 0 -6 5 -8 11 -4 8 4 7 9
-2 15 -19 12 -29 11 -29 -2z"/>
<path d="M4411 2291 c-8 -5 -9 -11 -3 -15 5 -3 12 1 16 9 6 17 6 18 -13 6z"/>
<path d="M3002 2116 c10 -7 14 -16 10 -21 -4 -4 3 -1 16 6 12 8 22 18 22 23 0
4 -6 3 -14 -3 -10 -8 -16 -9 -21 -1 -3 5 -12 10 -18 10 -7 0 -4 -6 5 -14z"/>
<path d="M1270 2079 c0 -5 5 -7 10 -4 6 3 10 8 10 11 0 2 -4 4 -10 4 -5 0 -10
-5 -10 -11z"/>
<path d="M2170 2040 c0 -5 5 -10 11 -10 5 0 7 5 4 10 -3 6 -8 10 -11 10 -2 0
-4 -4 -4 -10z"/>
<path d="M2220 2040 c-9 -6 -10 -10 -3 -10 6 0 15 5 18 10 8 12 4 12 -15 0z"/>
<path d="M3216 1446 c6 -16 5 -17 -16 -6 -12 7 -20 8 -17 3 3 -5 -3 -14 -14
-21 -11 -7 -19 -8 -19 -2 0 5 5 10 10 10 6 0 10 5 10 12 0 6 -8 3 -20 -7 -11
-10 -17 -22 -14 -26 4 -8 -8 -13 -27 -11 -3 1 -5 -10 -3 -23 1 -14 -2 -25 -7
-25 -5 0 -4 -9 3 -20 7 -11 18 -20 25 -20 7 0 13 -5 13 -11 0 -5 -6 -7 -12 -3
-8 4 -9 3 -5 -2 14 -15 66 -13 60 2 -3 8 -9 14 -15 14 -5 0 -16 6 -24 14 -11
11 -11 16 -1 19 9 4 9 6 0 6 -10 1 -10 7 -1 26 6 13 15 22 19 19 5 -3 9 0 9 6
0 6 5 8 10 5 6 -3 10 -2 10 2 0 5 9 9 20 9 13 0 20 -7 20 -19 0 -10 4 -16 9
-13 14 9 21 -20 8 -34 -9 -10 -9 -11 0 -6 6 3 14 3 17 -2 2 -4 -8 -13 -24 -20
-15 -7 -31 -20 -34 -29 -5 -13 -4 -14 9 -3 10 8 15 9 15 1 0 -22 28 -10 47 20
20 30 20 79 1 79 -5 0 -6 5 -3 10 6 9 -8 14 -27 11 -5 0 -8 3 -8 7 0 5 -7 17
-15 28 -14 18 -15 18 -9 0z m31 -141 c0 -8 -4 -12 -9 -9 -5 3 -6 10 -3 15 9
13 12 11 12 -6z"/>
<path d="M3394 1452 c2 -4 1 -14 -5 -22 -7 -13 -9 -13 -9 1 0 9 -7 16 -15 16
-11 0 -12 -4 -5 -11 17 -17 11 -29 -7 -15 -12 10 -14 10 -9 1 4 -7 1 -15 -9
-18 -13 -5 -13 -9 -3 -22 7 -9 8 -13 3 -10 -17 10 -36 -7 -29 -25 3 -9 10 -17
15 -17 5 0 9 -5 9 -11 0 -5 -6 -7 -12 -4 -7 4 -2 -3 11 -14 25 -23 41 -27 41
-11 0 6 5 10 11 10 5 0 7 -4 4 -10 -9 -14 1 -12 13 3 8 10 6 13 -10 14 -21 2
-51 34 -39 43 3 3 6 15 5 27 -1 16 4 20 18 18 11 -2 16 0 12 6 -3 6 0 10 7 8
32 -4 49 2 60 22 6 13 7 19 1 15 -6 -3 -12 -3 -15 1 -2 5 -2 2 -1 -4 2 -7 -1
-13 -6 -13 -6 0 -10 4 -10 9 0 5 -7 12 -16 15 -8 3 -13 2 -10 -2z m-39 -152
c3 -6 -1 -7 -9 -4 -18 7 -21 14 -7 14 6 0 13 -4 16 -10z"/>
<path d="M1915 1440 c-16 -7 -17 -9 -3 -9 9 -1 20 4 23 9 7 11 7 11 -20 0z"/>
<path d="M2250 1433 c6 -14 16 -20 25 -17 18 7 20 17 3 11 -7 -2 -19 3 -26 12
-11 14 -12 13 -2 -6z"/>
<path d="M3004 1442 c4 -7 2 -12 -4 -12 -6 0 -8 -4 -5 -10 3 -5 2 -10 -3 -10
-6 0 -13 7 -16 16 -7 18 -19 12 -22 -11 -1 -8 2 -12 8 -9 5 3 18 -3 29 -14 12
-13 15 -23 8 -27 -6 -5 -6 -12 3 -23 11 -13 11 -14 0 -8 -9 6 -12 1 -10 -18 4
-28 18 -48 18 -25 0 12 2 11 11 -1 8 -12 9 -11 7 5 -2 11 3 26 12 33 8 8 10
11 3 8 -6 -4 -14 -2 -18 4 -3 5 -1 10 6 10 8 0 8 4 -1 15 -10 12 -9 15 6 16
11 0 14 3 7 6 -7 2 -13 9 -13 15 0 6 7 8 15 4 17 -6 45 2 45 13 0 4 -7 8 -15
8 -8 0 -12 -3 -10 -7 2 -4 -9 -7 -25 -6 -19 1 -28 5 -26 13 3 7 0 15 -6 19 -7
4 -8 3 -4 -4z"/>
<path d="M3600 1440 c-9 -6 -10 -10 -3 -10 6 0 15 5 18 10 8 12 4 12 -15 0z"/>
<path d="M4917 1435 c-4 -8 -3 -16 1 -19 4 -3 9 4 9 15 2 23 -3 25 -10 4z"/>
<path d="M1006 1427 c3 -10 3 -17 -2 -16 -5 1 -15 1 -23 0 -11 -1 -11 -4 0
-18 10 -11 10 -14 2 -9 -7 4 -13 2 -13 -3 0 -6 5 -11 11 -11 8 0 8 -4 0 -13
-8 -10 -7 -17 2 -27 9 -10 9 -11 0 -6 -7 4 -13 2 -13 -3 0 -10 14 -15 33 -12
5 1 6 -3 2 -8 -3 -6 -13 -7 -23 -4 -9 3 -14 3 -10 -2 14 -15 58 -14 58 1 0 9
5 12 10 9 6 -4 8 -10 6 -14 -3 -4 6 -7 20 -7 13 0 24 4 24 9 0 5 -6 7 -14 4
-8 -3 -20 1 -26 8 -7 8 -16 13 -20 10 -9 -6 -23 25 -15 33 3 3 5 0 5 -7 0 -22
25 -5 26 17 1 12 -2 19 -7 16 -4 -2 -5 -12 -2 -22 3 -9 3 -14 -1 -10 -4 3 -8
12 -10 20 -1 7 -5 18 -9 24 -4 7 1 18 11 25 15 13 16 12 3 -3 -7 -10 -9 -18
-3 -18 5 0 13 7 16 16 9 23 8 27 -8 21 -7 -3 -19 0 -25 6 -9 9 -11 8 -5 -6z"/>
<path d="M1110 1431 c-8 -6 -19 -7 -25 -3 -5 3 -4 -1 2 -10 7 -8 12 -17 10
-19 -1 -2 0 -2 3 -1 3 2 4 6 2 9 -2 3 5 11 15 19 20 15 16 19 -7 5z"/>
<path d="M1230 1430 c-14 -9 -8 -12 16 -9 3 0 12 -8 21 -18 8 -10 12 -12 8 -5
-4 7 -1 21 7 30 11 15 11 15 -3 5 -9 -8 -19 -9 -25 -3 -6 6 -15 6 -24 0z"/>
<path d="M1407 1430 c6 -7 9 -20 6 -29 -4 -13 -2 -13 7 2 12 19 30 23 30 6 0
-5 -4 -7 -10 -4 -5 3 -10 1 -10 -4 0 -6 7 -11 16 -11 8 0 12 -4 9 -10 -13 -22
4 -8 19 15 14 21 14 24 1 19 -8 -4 -15 -1 -15 6 0 6 -8 10 -17 8 -10 -1 -25 1
-33 6 -12 7 -12 6 -3 -4z"/>
<path d="M1534 1428 c-3 -5 -10 -5 -16 -2 -7 4 -8 2 -4 -5 6 -9 11 -9 23 0 12
11 14 10 12 -2 -2 -7 2 -24 9 -36 7 -13 10 -23 6 -23 -3 0 -1 -7 6 -15 9 -10
9 -15 1 -15 -6 0 -11 -5 -11 -11 0 -5 4 -8 9 -5 5 4 7 -2 4 -12 -3 -13 2 -18
24 -20 24 -1 26 0 10 9 -18 10 -18 11 0 26 10 8 13 12 7 9 -6 -3 -16 6 -23 20
-6 15 -7 23 -1 19 5 -3 10 -1 10 5 0 6 4 8 10 5 6 -4 6 4 -1 21 -10 28 -10 28
10 9 12 -10 21 -16 22 -14 0 2 2 12 4 22 2 9 -1 15 -6 11 -5 -3 -9 1 -9 8 0 8
-3 9 -8 3 -8 -12 -65 -18 -58 -6 3 4 -2 8 -10 8 -8 0 -17 -4 -20 -9z m40 -34
c5 -14 4 -15 -9 -4 -17 14 -19 20 -6 20 5 0 12 -7 15 -16z"/>
<path d="M1869 1435 c-1 -6 -1 -13 0 -17 0 -5 -3 -8 -9 -8 -5 0 -10 5 -10 11
0 5 -5 7 -10 4 -6 -4 -8 -11 -5 -16 4 -5 0 -9 -7 -9 -9 0 -9 -3 2 -10 13 -9
13 -10 0 -11 -10 0 -8 -3 5 -9 l20 -9 -20 0 c-16 -1 -17 -3 -6 -10 11 -7 10
-10 -5 -14 -17 -4 -17 -5 -1 -6 14 -1 16 -5 8 -20 -8 -15 -7 -20 6 -25 19 -8
53 2 53 15 0 13 -14 11 -29 -3 -10 -11 -11 -10 -6 5 4 9 11 17 17 17 5 0 6 5
3 10 -4 6 -12 7 -18 3 -7 -4 -6 0 2 10 15 19 26 23 15 5 -4 -6 -3 -8 4 -4 6 3
14 2 17 -4 5 -8 11 -7 21 1 9 7 14 8 14 1 0 -11 26 -10 35 1 3 4 2 5 -1 2 -14
-10 -43 16 -38 33 5 14 4 14 -4 3 -15 -22 -41 -22 -52 -1 -8 15 -6 21 7 29 15
8 16 12 6 22 -7 7 -14 9 -14 4z m51 -81 c0 -8 -19 -13 -24 -6 -3 5 1 9 9 9 8
0 15 -2 15 -3z"/>
<path d="M2204 1432 c6 -9 1 -11 -18 -8 -15 3 -24 1 -21 -5 4 -5 1 -9 -6 -9
-9 0 -9 -3 0 -14 9 -11 9 -16 0 -21 -8 -6 -7 -10 2 -16 12 -7 12 -9 0 -9 -11
0 -11 -3 0 -17 8 -9 9 -14 3 -10 -7 4 -14 0 -17 -8 -4 -9 -1 -12 9 -8 9 3 14
0 12 -8 -2 -9 10 -13 38 -14 32 -1 41 2 37 13 -3 7 -9 10 -12 5 -3 -4 -13 -9
-22 -11 -19 -3 -21 27 -2 46 14 15 18 33 6 31 -27 -4 -33 1 -21 20 7 11 15 18
19 15 4 -2 13 4 20 14 7 9 9 14 5 10 -5 -4 -16 -2 -24 5 -13 10 -14 9 -8 -1z"/>
<path d="M2463 1428 c7 -20 -9 -25 -16 -5 -3 7 -6 5 -6 -5 -1 -12 -6 -15 -18
-11 -9 4 -14 2 -11 -3 3 -5 -4 -17 -17 -26 -15 -11 -22 -13 -22 -5 1 34 -4 45
-20 42 -10 -2 -20 -4 -23 -4 -3 -1 2 -6 10 -11 12 -8 12 -10 -5 -10 -19 -1
-19 -1 -2 -14 12 -9 14 -16 8 -21 -6 -3 -11 -11 -11 -16 0 -6 4 -7 10 -4 6 3
7 -1 4 -9 -3 -9 -10 -13 -15 -10 -5 3 -6 -2 -3 -10 3 -9 10 -13 15 -10 5 3 9
1 9 -4 0 -5 6 -9 14 -9 8 0 12 10 11 27 -2 23 1 26 26 22 16 -2 29 -11 29 -18
0 -8 5 -14 11 -14 5 0 8 -4 5 -8 -2 -4 6 -9 20 -10 13 -1 24 3 24 9 0 13 -38
49 -52 49 -4 0 -8 12 -8 26 0 19 4 25 15 20 8 -3 15 -1 15 5 0 6 4 8 9 4 11
-6 6 34 -5 44 -4 3 -4 -2 -1 -11z"/>
<path d="M2584 1423 c-8 -8 -14 -10 -14 -4 0 6 -7 11 -15 11 -20 0 -19 -9 3
-33 12 -15 13 -18 2 -13 -8 4 -4 -2 10 -14 14 -12 19 -18 11 -14 -11 5 -13 3
-8 -9 4 -10 2 -16 -5 -14 -6 1 -13 -4 -15 -10 -3 -7 2 -13 11 -13 9 0 13 -6
10 -14 -4 -10 0 -14 12 -12 16 2 30 46 15 46 -3 0 -6 13 -7 30 -1 16 3 27 8
23 6 -3 5 4 -1 15 -8 15 -8 23 1 28 6 4 8 3 5 -3 -11 -17 16 -34 33 -21 12 8
12 9 -2 4 -10 -3 -20 -1 -23 4 -6 10 9 15 30 10 6 -1 7 2 2 6 -13 13 -48 11
-63 -3z"/>
<path d="M3563 1434 c4 -7 0 -17 -8 -24 -13 -11 -14 -10 -9 6 4 10 5 17 3 14
-22 -26 -42 -54 -35 -48 5 4 15 0 23 -10 9 -10 12 -11 7 -2 -4 9 2 7 13 -5 11
-11 19 -23 17 -27 -2 -3 7 -5 20 -4 14 2 31 -5 40 -15 23 -28 44 -24 38 6 -4
23 -8 25 -43 21 -23 -3 -39 -1 -39 5 0 6 5 7 10 4 6 -3 10 -1 10 6 0 6 -8 9
-20 6 -20 -5 -23 14 -7 39 4 7 -1 18 -10 25 -9 8 -14 9 -10 3z"/>
<path d="M3803 1434 c4 -7 0 -15 -9 -18 -8 -3 -12 -2 -9 4 8 13 -64 5 -78 -9
-8 -8 -2 -8 20 -2 28 8 30 7 25 -13 -3 -11 -1 -18 3 -14 5 4 14 3 22 -4 11 -8
17 -8 26 2 9 10 9 11 -2 5 -9 -5 -12 -3 -9 6 3 8 10 13 16 12 12 -3 10 23 -3
34 -4 4 -5 3 -2 -3z"/>
<path d="M4100 1425 c-7 -8 -17 -12 -23 -8 -6 4 -8 0 -4 -10 3 -9 3 -16 -1
-16 -18 3 -22 -2 -10 -15 7 -8 16 -12 21 -9 4 2 7 -1 7 -8 0 -6 8 -9 20 -6 14
4 20 0 20 -11 0 -14 2 -15 9 -2 12 18 3 33 -18 27 -11 -3 -16 3 -18 21 -1 19
1 22 9 11 8 -11 8 -9 4 5 -4 11 -1 23 6 28 8 5 9 8 2 8 -6 0 -17 -7 -24 -15z"/>
<path d="M4265 1430 c-3 -6 -11 -7 -17 -4 -7 4 -8 2 -4 -5 4 -6 12 -8 18 -5 7
4 8 2 4 -5 -4 -6 -11 -9 -16 -6 -5 3 -11 1 -15 -5 -3 -5 -1 -10 5 -10 6 0 8
-5 3 -12 -11 -18 -13 -39 -3 -33 4 3 10 -2 14 -10 3 -8 1 -14 -3 -12 -5 1 -9
-2 -9 -8 0 -5 4 -9 9 -8 4 2 6 -3 3 -10 -3 -9 8 -12 36 -12 23 0 37 1 31 3 -6
2 -9 7 -6 11 2 5 -7 6 -21 3 -24 -4 -25 -3 -15 16 8 15 8 21 -1 24 -7 3 -6 7
5 11 10 4 16 2 14 -6 -1 -7 5 -10 13 -8 8 2 23 3 32 3 23 -1 30 24 7 25 -10 1
-19 -2 -19 -8 0 -5 -5 -9 -11 -9 -5 0 -7 5 -4 10 4 6 1 9 -7 8 -7 -2 -12 3
-10 10 1 8 -2 11 -8 7 -6 -3 -7 -12 -4 -18 4 -7 1 -6 -7 1 -12 11 -10 16 10
33 13 11 21 22 17 26 -3 3 -6 3 -6 -2 0 -4 -6 -2 -14 4 -10 8 -16 9 -21 1z"/>
<path d="M4323 1425 c0 -8 4 -12 8 -9 4 2 9 -4 11 -13 3 -14 5 -13 10 5 4 13
4 21 1 18 -4 -3 -11 -1 -18 4 -8 7 -12 5 -12 -5z"/>
<path d="M4802 1424 c-7 -8 -8 -14 -3 -14 10 0 25 19 20 25 -2 1 -10 -3 -17
-11z"/>
<path d="M4850 1434 c-9 -3 -22 -15 -29 -27 l-14 -22 23 20 23 20 -13 -24
c-17 -32 4 -45 39 -23 14 9 27 17 29 18 6 3 -11 34 -20 34 -5 0 -6 -5 -2 -11
4 -7 1 -10 -7 -7 -8 3 -13 11 -11 17 1 6 1 10 0 10 -2 -1 -10 -3 -18 -5z m45
-34 c-3 -5 -12 -10 -18 -10 -7 0 -6 4 3 10 19 12 23 12 15 0z"/>
<path d="M1181 1421 c-30 -8 -40 -31 -14 -32 10 0 13 -3 6 -5 -6 -3 -9 -16 -7
-30 3 -14 1 -23 -4 -21 -4 3 -8 -3 -8 -13 0 -10 4 -16 8 -14 4 3 8 -2 8 -10 0
-9 9 -16 20 -16 11 0 20 5 20 11 0 8 4 8 13 2 19 -14 60 -10 64 7 3 9 1 11 -4
5 -10 -13 -46 -14 -54 -2 -4 5 -17 4 -30 -3 -23 -12 -23 -11 -7 6 16 16 16 18
1 29 -14 11 -14 12 3 10 11 0 26 -5 33 -10 9 -5 12 -4 8 2 -4 6 0 13 8 16 9 4
12 1 8 -9 -6 -16 12 -20 22 -4 4 6 11 8 16 5 5 -3 6 1 3 9 -6 15 -54 18 -64 4
-3 -3 -14 1 -25 9 -12 10 -14 14 -4 10 12 -4 14 1 11 24 -2 16 -5 29 -6 28 0
-1 -12 -4 -25 -8z"/>
<path d="M1363 1423 c-7 -2 -13 -12 -13 -21 0 -15 -2 -15 -10 -2 -7 12 -9 10
-7 -7 0 -12 3 -20 5 -18 2 2 12 -4 23 -13 11 -9 23 -17 27 -18 21 -2 41 -17
35 -27 -3 -6 -1 -7 6 -3 6 4 9 12 6 17 -4 5 -2 9 3 9 5 0 12 -9 15 -20 3 -13
0 -20 -8 -20 -8 0 -16 -4 -19 -9 -9 -14 38 -7 54 9 14 13 12 18 -14 42 -17 15
-35 24 -44 20 -9 -3 -13 -1 -9 5 8 13 -11 12 -33 -2 -12 -7 -11 -3 3 18 16 25
16 26 0 20 -16 -6 -16 -5 -4 10 13 17 8 20 -16 10z m69 -67 c10 5 10 4 1 -6
-9 -10 -15 -10 -26 -2 -8 7 -18 8 -22 4 -5 -4 -5 -1 -1 6 6 10 11 10 21 2 8
-7 20 -8 27 -4z"/>
<path d="M1690 1412 l-23 -18 28 -22 c15 -12 23 -22 17 -22 -6 0 -14 5 -17 10
-3 6 -10 10 -15 10 -9 0 -7 -26 3 -36 4 -4 2 -13 -3 -19 -7 -9 -6 -16 4 -25
18 -14 39 -4 32 17 -3 8 -2 12 3 9 4 -3 8 17 8 44 0 28 -4 50 -9 50 -5 0 -6 5
-3 10 9 15 0 12 -25 -8z"/>
<path d="M1935 1421 c-3 -5 0 -13 6 -17 8 -5 9 -3 4 6 -6 10 -4 12 8 7 10 -3
17 -2 17 3 0 13 -27 13 -35 1z"/>
<path d="M2020 1422 c0 -7 -4 -11 -8 -8 -4 2 -9 -7 -10 -20 -1 -14 2 -23 7
-20 5 4 7 -3 4 -14 -3 -11 -10 -20 -17 -20 -6 0 -3 -5 6 -11 9 -5 15 -16 12
-23 -3 -8 2 -16 13 -19 25 -8 91 -3 100 8 5 4 3 5 -4 1 -6 -3 -14 -2 -18 4 -4
6 -11 8 -16 5 -5 -4 -21 3 -35 14 -15 12 -22 21 -16 21 13 0 21 56 10 72 -4 7
-8 9 -8 3 0 -5 -5 -3 -10 5 -7 11 -10 11 -10 2z m25 -30 c-3 -3 -11 0 -18 7
-9 10 -8 11 6 5 10 -3 15 -9 12 -12z m15 -87 c7 -8 9 -15 6 -15 -4 0 -14 7
-22 15 -9 8 -11 15 -6 15 5 0 15 -7 22 -15z"/>
<path d="M2689 1420 c-14 -9 -20 -50 -7 -50 7 0 6 -6 -2 -15 -10 -12 -10 -15
1 -15 12 0 12 -2 0 -9 -11 -7 -11 -9 0 -14 9 -4 10 -6 2 -6 -17 -1 -4 -31 13
-31 8 0 14 5 14 11 0 5 6 7 13 3 9 -6 9 -5 -1 8 -10 12 -9 22 3 52 8 20 12 36
8 36 -5 0 -1 5 7 10 11 7 11 10 2 10 -7 0 -11 4 -8 8 5 9 -30 11 -45 2z m21
-4 c0 -2 -8 -10 -17 -17 -16 -13 -17 -12 -4 4 13 16 21 21 21 13z m16 -21 c-1
-8 -5 -17 -8 -21 -5 -4 -4 16 1 34 3 9 9 -1 7 -13z"/>
<path d="M2766 1413 c-6 -14 -5 -15 5 -6 7 7 10 15 7 18 -3 3 -9 -2 -12 -12z"/>
<path d="M2798 1423 c6 -2 12 -9 12 -14 0 -6 -4 -8 -8 -5 -5 3 -9 -1 -9 -8 0
-20 31 -36 48 -25 11 7 11 9 1 9 -7 0 -11 4 -7 9 6 11 -22 41 -38 40 -9 0 -8
-2 1 -6z"/>
<path d="M2901 1414 c0 -11 3 -14 6 -6 3 7 2 16 -1 19 -3 4 -6 -2 -5 -13z"/>
<path d="M3445 1410 c-15 -17 -15 -19 5 -25 16 -5 18 -10 10 -20 -8 -10 -8
-14 1 -17 7 -2 -1 -16 -20 -34 l-32 -30 31 -2 c22 -2 30 2 30 14 0 10 5 14 15
10 13 -5 14 -2 4 17 -11 20 -11 21 4 8 15 -12 17 -11 17 13 0 18 -5 26 -17 26
-15 0 -16 2 -3 10 11 7 11 10 2 10 -7 0 -11 3 -9 8 3 4 -1 12 -8 19 -10 9 -17
8 -30 -7z"/>
<path d="M3610 1414 c-11 -12 -11 -15 -2 -10 8 5 21 1 32 -9 14 -13 20 -13 26
-4 4 7 2 15 -4 17 -7 2 -9 9 -5 15 4 8 1 7 -9 -1 -12 -9 -17 -10 -20 -1 -2 7
-9 5 -18 -7z"/>
<path d="M3883 1418 c-26 -12 -29 -28 -10 -47 7 -9 7 -11 1 -8 -7 4 -15 0 -18
-9 -4 -10 -2 -13 6 -8 7 5 9 0 6 -13 -7 -26 25 -55 55 -51 20 3 20 4 3 21 -10
10 -18 29 -18 42 0 14 -4 22 -9 19 -5 -3 -6 2 -3 10 3 9 11 13 16 10 6 -4 6 1
-1 13 -6 11 -7 23 -4 27 9 8 2 7 -24 -6z"/>
<path d="M3993 1416 c-12 -19 -11 -47 2 -36 8 6 11 2 11 -15 0 -20 -2 -22 -15
-12 -12 10 -13 9 -4 -8 8 -15 6 -24 -8 -37 -10 -9 -20 -12 -23 -7 -2 5 -3 4
-2 -2 3 -16 56 -24 56 -9 0 6 -6 8 -12 4 -8 -4 -10 -3 -5 2 5 5 14 9 20 9 7 0
12 15 12 35 0 19 5 38 10 42 6 5 6 8 -2 8 -6 0 -10 8 -8 18 4 20 -21 26 -32 8z"/>
<path d="M4134 1419 c-4 -8 1 -9 17 -4 22 7 23 7 9 -10 -8 -11 -10 -16 -3 -12
6 4 15 2 19 -4 8 -14 24 8 18 25 -6 15 -51 19 -60 5z"/>
<path d="M4502 1410 c-24 -20 -25 -22 -11 -57 6 -16 5 -23 -3 -23 -6 0 -3 -10
8 -22 10 -12 14 -18 7 -15 -6 4 -14 4 -17 -1 -2 -4 4 -8 14 -9 11 -1 22 2 25
8 4 5 12 9 18 9 8 0 7 -4 -2 -9 -10 -6 -2 -8 22 -7 36 3 60 12 35 14 -42 2
-105 32 -69 32 7 0 9 5 6 10 -4 6 -12 8 -18 4 -7 -3 -5 0 3 8 18 15 24 58 9
58 -6 0 -7 5 -4 10 9 14 3 12 -23 -10z m25 -25 c0 -8 -4 -12 -9 -9 -5 3 -6 10
-3 15 9 13 12 11 12 -6z"/>
<path d="M4655 1420 c3 -5 3 -10 -2 -10 -4 0 -8 -18 -9 -39 0 -24 4 -38 10
-35 6 3 4 -1 -5 -7 -15 -11 -15 -14 0 -31 8 -10 22 -18 31 -17 10 0 9 3 -5 9
-11 5 -15 9 -8 9 12 1 10 31 -3 54 -5 7 0 6 11 -3 17 -14 18 -14 7 6 -8 16 -8
24 1 34 9 10 9 11 0 6 -9 -5 -13 0 -13 13 0 12 -5 21 -11 21 -5 0 -7 -4 -4
-10z"/>
<path d="M4727 1413 c5 -12 3 -14 -8 -8 -8 5 -5 -2 5 -14 15 -16 16 -20 5 -16
-10 4 -16 0 -16 -10 0 -10 6 -14 16 -10 11 3 10 0 -3 -10 -12 -9 -15 -15 -7
-15 10 0 11 -3 2 -14 -9 -10 -8 -16 4 -26 13 -11 19 -10 33 5 16 18 16 18 -2
4 -18 -13 -19 -13 -7 9 6 12 8 22 4 22 -4 0 -1 5 7 10 11 7 11 10 2 10 -7 0
-12 6 -11 13 4 31 -2 55 -15 60 -11 4 -13 1 -9 -10z"/>
<path d="M1290 1411 c0 -6 4 -13 10 -16 6 -3 7 1 4 9 -7 18 -14 21 -14 7z"/>
<path d="M2521 1404 c0 -11 3 -14 6 -6 3 7 2 16 -1 19 -3 4 -6 -2 -5 -13z"/>
<path d="M2872 1394 c-1 -14 2 -23 8 -19 6 3 7 -1 4 -9 -3 -9 -9 -14 -13 -11
-4 2 -8 -2 -8 -10 0 -8 5 -11 11 -8 6 4 5 -1 -3 -10 -9 -11 -10 -17 -2 -17 6
0 11 -5 11 -11 0 -5 -6 -7 -12 -3 -8 4 -8 2 1 -7 10 -11 15 -11 18 -1 3 6 9
12 14 12 6 0 7 -5 3 -12 -4 -6 -3 -8 3 -5 12 8 12 66 -1 86 -6 9 -5 12 2 7 6
-3 14 -1 18 5 4 8 3 9 -4 5 -6 -4 -17 2 -24 14 -17 27 -23 25 -26 -6z m35 -49
c0 -8 -4 -12 -9 -9 -5 3 -6 10 -3 15 9 13 12 11 12 -6z"/>
<path d="M3615 1390 c-3 -5 -1 -10 4 -10 6 0 11 5 11 10 0 6 -2 10 -4 10 -3 0
-8 -4 -11 -10z"/>
<path d="M2765 1370 c-3 -5 -3 -16 1 -22 6 -10 4 -10 -8 0 -14 11 -18 10 -28
-10 -10 -20 -9 -21 3 -6 12 16 14 16 27 -3 8 -10 20 -19 28 -19 7 0 15 -6 18
-14 3 -8 14 -14 24 -13 15 1 16 4 6 22 -6 11 -15 23 -19 26 -5 3 -8 9 -8 13 3
24 0 28 -13 17 -11 -9 -16 -9 -22 0 -5 8 -3 9 6 4 9 -5 11 -4 6 3 -9 15 -13
15 -21 2z"/>
<path d="M3756 1372 c-3 -6 -2 -13 3 -17 6 -3 8 -12 5 -20 -4 -8 -10 -12 -15
-9 -5 3 -6 -2 -3 -10 3 -9 11 -13 18 -9 7 5 7 2 -1 -8 -10 -12 -8 -15 7 -16
11 -1 19 1 19 5 -5 31 3 62 13 56 7 -5 8 -3 4 5 -5 7 -10 10 -14 7 -3 -3 -10
2 -17 11 -8 10 -14 12 -19 5z"/>
<path d="M4159 1378 c-7 -24 -7 -48 0 -44 5 3 9 -5 9 -18 0 -17 -5 -23 -17
-21 -9 2 -16 4 -16 5 0 1 -8 3 -17 5 -10 2 -25 10 -34 19 -20 21 -21 20 -18
-6 1 -13 3 -26 3 -30 1 -12 51 -9 51 3 0 6 5 7 13 2 6 -4 28 -8 47 -9 19 -1
29 0 23 3 -7 3 -13 9 -13 14 0 6 4 8 9 5 5 -3 11 1 15 9 6 17 -9 29 -25 19 -8
-4 -9 1 -4 17 5 19 4 21 -4 9 -10 -13 -15 -8 -12 13 1 6 -8 11 -10 5z"/>
<path d="M1069 1368 c-6 -22 -5 -36 5 -34 19 3 36 17 36 29 0 7 -4 6 -10 -3
-6 -10 -10 -11 -10 -2 0 10 -18 18 -21 10z"/>
<path d="M2233 1354 c1 -15 6 -20 18 -17 11 3 15 11 12 20 -4 11 -8 12 -13 3
-6 -9 -9 -9 -13 1 -3 8 -5 5 -4 -7z"/>
<path d="M3626 1358 c3 -5 10 -6 15 -3 13 9 11 12 -6 12 -8 0 -12 -4 -9 -9z"/>
<path d="M4865 1360 c-4 -6 -10 -8 -15 -5 -5 3 -11 1 -15 -5 -3 -5 -1 -10 5
-10 8 0 8 -6 0 -20 -9 -17 -8 -20 7 -20 15 0 16 -2 3 -10 -12 -7 -10 -9 7 -7
12 0 20 4 17 8 -2 4 2 10 8 12 10 4 10 6 0 6 -8 1 -10 6 -5 14 11 18 12 36 3
42 -5 3 -11 1 -15 -5z"/>
<path d="M3544 1331 c5 -8 0 -14 -13 -18 -21 -5 -21 -6 -4 -17 10 -7 29 -13
43 -13 14 -1 19 1 13 4 -7 3 -13 9 -13 14 0 6 5 7 12 3 7 -4 8 -3 4 4 -4 6
-14 8 -23 5 -10 -4 -14 -2 -9 5 3 6 1 14 -5 18 -8 5 -9 3 -5 -5z"/>
<path d="M1340 1317 c0 -4 -6 -5 -12 -1 -7 4 -5 -2 5 -13 17 -20 74 -26 70 -7
-2 5 -7 10 -13 10 -5 1 -16 2 -22 3 -9 1 -9 4 2 11 12 7 10 9 -8 7 -12 0 -22
-5 -22 -10z"/>
<path d="M1908 1291 c-10 -13 -10 -14 2 -4 9 8 19 9 31 2 14 -7 17 -6 13 4 -7
18 -32 17 -46 -2z"/>
<path d="M2258 1303 c6 -2 10 -8 7 -13 -3 -4 5 -6 17 -2 21 5 21 6 2 13 -10 4
-23 8 -29 8 -5 -1 -4 -3 3 -6z"/>
<path d="M3608 1299 c-4 -10 4 -15 31 -16 28 -1 32 0 18 8 -9 6 -21 8 -26 4
-5 -3 -11 0 -13 7 -3 8 -6 8 -10 -3z"/>
<path d="M4347 1297 c-3 -8 0 -14 7 -14 7 0 13 6 13 14 0 7 -4 13 -8 13 -4 0
-9 -6 -12 -13z"/>
</g>
</svg>
